<svg width="42" height="42" viewBox="0 0 42 42" fill="none" xmlns="http://www.w3.org/2000/svg">
<path d="M0 21C0 9.40202 9.40202 0 21 0C32.598 0 42 9.40202 42 21V42H21C9.40202 42 0 32.598 0 21Z" fill="url(#paint0_linear)"/>
<path d="M30.7313 12.6732C30.6848 12.4666 30.4712 12.2623 30.2544 12.2179C28.9967 11.96 28.012 11.96 27.0315 11.96C22.999 11.96 20.5808 14.022 18.7755 16.7413H14.7046C14.066 16.7419 13.3157 17.1849 13.0293 17.7306L11.0983 21.4217C11.0386 21.5475 11.0052 21.6834 11 21.8215C11.0001 22.0593 11.0989 22.2873 11.2748 22.4554C11.4506 22.6235 11.6891 22.718 11.9377 22.718H15.9928L15.1149 23.5573C14.671 23.9817 14.6072 24.7622 15.1149 25.2476L17.1034 27.1491C17.5391 27.567 18.3595 27.6406 18.872 27.1491L19.7499 26.3098V30.1888C19.75 30.4266 19.8488 30.6546 20.0247 30.8227C20.2005 30.9908 20.439 31.0853 20.6876 31.0853C20.8321 31.0802 20.9741 31.0483 21.1059 30.9914L24.9625 29.1464C25.5339 28.8738 25.9979 28.1565 25.9979 27.5454V23.6442C28.8338 21.9143 30.9993 19.5948 30.9993 15.759C31.0029 14.8176 31.0029 13.8761 30.7313 12.6732ZM26.0016 18.2355C25.6926 18.2354 25.3905 18.1477 25.1336 17.9835C24.8767 17.8193 24.6765 17.5859 24.5583 17.3128C24.4401 17.0398 24.4092 16.7394 24.4695 16.4496C24.5299 16.1598 24.6787 15.8936 24.8972 15.6846C25.1158 15.4757 25.3942 15.3334 25.6973 15.2758C26.0003 15.2182 26.3145 15.2478 26.6 15.3609C26.8855 15.474 27.1295 15.6655 27.3012 15.9112C27.4728 16.1569 27.5645 16.4458 27.5645 16.7413C27.5642 17.1376 27.3995 17.5175 27.1064 17.7977C26.8134 18.0779 26.416 18.2353 26.0016 18.2355Z" fill="white"/>
<defs>
<linearGradient id="paint0_linear" x1="-2.03401e-06" y1="4.69387e-07" x2="42" y2="42" gradientUnits="userSpaceOnUse">
<stop stop-color="#C01313"/>
<stop offset="1" stop-color="#7C1E1E"/>
</linearGradient>
</defs>
</svg>
