<svg width="42" height="42" viewBox="0 0 42 42" fill="none" xmlns="http://www.w3.org/2000/svg">
<path d="M0 21C0 9.40202 9.40202 0 21 0C32.598 0 42 9.40202 42 21V42H21C9.40202 42 0 32.598 0 21Z" fill="url(#paint0_linear)"/>
<path d="M30.75 17.25H13.25C12.5596 17.25 12 16.6904 12 16V13.5C12 12.8096 12.5596 12.25 13.25 12.25H30.75C31.4404 12.25 32 12.8096 32 13.5V16C32 16.6904 31.4404 17.25 30.75 17.25ZM28.875 13.8125C28.3572 13.8125 27.9375 14.2322 27.9375 14.75C27.9375 15.2678 28.3572 15.6875 28.875 15.6875C29.3928 15.6875 29.8125 15.2678 29.8125 14.75C29.8125 14.2322 29.3928 13.8125 28.875 13.8125ZM26.375 13.8125C25.8572 13.8125 25.4375 14.2322 25.4375 14.75C25.4375 15.2678 25.8572 15.6875 26.375 15.6875C26.8928 15.6875 27.3125 15.2678 27.3125 14.75C27.3125 14.2322 26.8928 13.8125 26.375 13.8125ZM30.75 23.5H13.25C12.5596 23.5 12 22.9404 12 22.25V19.75C12 19.0596 12.5596 18.5 13.25 18.5H30.75C31.4404 18.5 32 19.0596 32 19.75V22.25C32 22.9404 31.4404 23.5 30.75 23.5ZM28.875 20.0625C28.3572 20.0625 27.9375 20.4822 27.9375 21C27.9375 21.5178 28.3572 21.9375 28.875 21.9375C29.3928 21.9375 29.8125 21.5178 29.8125 21C29.8125 20.4822 29.3928 20.0625 28.875 20.0625ZM26.375 20.0625C25.8572 20.0625 25.4375 20.4822 25.4375 21C25.4375 21.5178 25.8572 21.9375 26.375 21.9375C26.8928 21.9375 27.3125 21.5178 27.3125 21C27.3125 20.4822 26.8928 20.0625 26.375 20.0625ZM30.75 29.75H13.25C12.5596 29.75 12 29.1904 12 28.5V26C12 25.3096 12.5596 24.75 13.25 24.75H30.75C31.4404 24.75 32 25.3096 32 26V28.5C32 29.1904 31.4404 29.75 30.75 29.75ZM28.875 26.3125C28.3572 26.3125 27.9375 26.7322 27.9375 27.25C27.9375 27.7678 28.3572 28.1875 28.875 28.1875C29.3928 28.1875 29.8125 27.7678 29.8125 27.25C29.8125 26.7322 29.3928 26.3125 28.875 26.3125ZM26.375 26.3125C25.8572 26.3125 25.4375 26.7322 25.4375 27.25C25.4375 27.7678 25.8572 28.1875 26.375 28.1875C26.8928 28.1875 27.3125 27.7678 27.3125 27.25C27.3125 26.7322 26.8928 26.3125 26.375 26.3125Z" fill="white"/>
<defs>
<linearGradient id="paint0_linear" x1="-2.03401e-06" y1="4.69387e-07" x2="42" y2="42" gradientUnits="userSpaceOnUse">
<stop stop-color="#1363C0"/>
<stop offset="1" stop-color="#1E477C"/>
</linearGradient>
</defs>
</svg>
