<svg width="1920" height="739" viewBox="0 0 1920 739" fill="none" xmlns="http://www.w3.org/2000/svg">
<path d="M0 0H1920V561.607C1008.06 845.409 795.477 364.745 0 715V0Z" fill="#2B65BE"/>
<path d="M0 0H1920V561.233C997.88 287.607 870.671 1073.53 0 561.233V0Z" fill="url(#paint0_linear)"/>
<mask id="mask0" mask-type="alpha" maskUnits="userSpaceOnUse" x="-228" y="-461" width="920" height="922">
<ellipse cx="231.67" cy="-0.495728" rx="459.67" ry="460.504" fill="#3A99F0" fill-opacity="0.44"/>
</mask>
<g mask="url(#mask0)">
<path d="M-0.697021 0.0678711H1910V633.614C1002.48 953.768 790.926 411.534 -0.697021 806.655V0.0678711Z" fill="#2C75E3" fill-opacity="0.8"/>
</g>
<mask id="mask1" mask-type="alpha" maskUnits="userSpaceOnUse" x="1336" y="51" width="329" height="329">
<circle r="164.5" transform="matrix(-1 0 0 1 1500.5 215.5)" fill="#2792F4" fill-opacity="0.75"/>
</mask>
<g mask="url(#mask1)">
<path d="M1915.7 -80H5.00037V553.546C912.525 873.7 1124.07 331.467 1915.7 726.587V-80Z" fill="#2C75E3" fill-opacity="0.8"/>
</g>
<defs>
<linearGradient id="paint0_linear" x1="1991.5" y1="-225.51" x2="316.346" y2="1118.2" gradientUnits="userSpaceOnUse">
<stop stop-color="#0085FF"/>
<stop offset="1" stop-color="#0C579D"/>
</linearGradient>
</defs>
</svg>
