<svg width="42" height="42" viewBox="0 0 42 42" fill="none" xmlns="http://www.w3.org/2000/svg">
<path d="M0 21C0 9.40202 9.40202 0 21 0C32.598 0 42 9.40202 42 21V42H21C9.40202 42 0 32.598 0 21Z" fill="url(#paint0_linear)"/>
<path d="M31.8792 21.0378C29.9962 17.5245 26.2684 15.1475 22 15.1475C17.7316 15.1475 14.0028 17.5262 12.1208 21.0382C12.0414 21.1884 12 21.3544 12 21.5228C12 21.6911 12.0414 21.8571 12.1208 22.0074C14.0038 25.5207 17.7316 27.8977 22 27.8977C26.2684 27.8977 29.9972 25.519 31.8792 22.007C31.9586 21.8568 32 21.6908 32 21.5224C32 21.3541 31.9586 21.1881 31.8792 21.0378ZM22 26.3039C21.0111 26.3039 20.0444 26.0235 19.2221 25.4981C18.3999 24.9728 17.759 24.226 17.3806 23.3523C17.0022 22.4787 16.9031 21.5173 17.0961 20.5898C17.289 19.6623 17.7652 18.8104 18.4645 18.1417C19.1637 17.473 20.0546 17.0176 21.0245 16.8331C21.9945 16.6486 22.9998 16.7433 23.9134 17.1052C24.8271 17.4671 25.6079 18.0799 26.1574 18.8662C26.7068 19.6525 27 20.5769 27 21.5226C27.0003 22.1506 26.8712 22.7725 26.6201 23.3527C26.3689 23.9329 26.0006 24.4602 25.5363 24.9042C25.0719 25.3483 24.5206 25.7004 23.9138 25.9406C23.307 26.1808 22.6567 26.3043 22 26.3039ZM22 18.335C21.7025 18.339 21.4069 18.3813 21.1212 18.4609C21.3567 18.7669 21.4697 19.1435 21.4397 19.5224C21.4097 19.9013 21.2388 20.2573 20.9578 20.526C20.6769 20.7947 20.3045 20.9581 19.9083 20.9868C19.5121 21.0155 19.1183 20.9074 18.7983 20.6822C18.616 21.3242 18.6489 22.0047 18.8923 22.628C19.1357 23.2512 19.5773 23.7857 20.1551 24.1563C20.7328 24.5269 21.4175 24.715 22.1128 24.694C22.8082 24.673 23.4791 24.444 24.0312 24.0392C24.5833 23.6345 24.9888 23.0743 25.1906 22.4377C25.3923 21.801 25.3803 21.1199 25.156 20.4901C24.9318 19.8604 24.5066 19.3138 23.9405 18.9272C23.3744 18.5406 22.6957 18.3335 22 18.335Z" fill="white"/>
<defs>
<linearGradient id="paint0_linear" x1="-2.03401e-06" y1="4.69387e-07" x2="42" y2="42" gradientUnits="userSpaceOnUse">
<stop stop-color="#13C082"/>
<stop offset="1" stop-color="#1E7C71"/>
</linearGradient>
</defs>
</svg>
