<svg width="42" height="42" viewBox="0 0 42 42" fill="none" xmlns="http://www.w3.org/2000/svg">
<path d="M0 21C0 9.40202 9.40202 0 21 0C32.598 0 42 9.40202 42 21V42H21C9.40202 42 0 32.598 0 21Z" fill="url(#paint0_linear)"/>
<path d="M15.2759 21.0761L20.5328 16.0498L18.8094 14.4018L16.4001 16.7057C16.3714 16.7333 16.3372 16.7551 16.2997 16.77C16.2621 16.7849 16.2218 16.7926 16.1812 16.7926C16.1405 16.7926 16.1002 16.7849 16.0626 16.77C16.0251 16.7551 15.9909 16.7333 15.9622 16.7057L15.5243 16.287C15.4032 16.1712 15.4032 15.9837 15.5243 15.8683L17.9337 13.5643L16.6196 12.3073C16.1356 11.8445 15.3513 11.8445 14.8673 12.3073L11.3631 15.6583C10.8795 16.1211 10.8791 16.8712 11.3631 17.334L15.2759 21.0761ZM30.4502 16.7132C31.183 16.0124 31.1826 14.8765 30.4502 14.1758L28.6827 12.4855C27.9499 11.7848 26.7616 11.7848 26.0284 12.4855L24.2308 14.2042L28.6526 18.4326L30.4502 16.7132ZM23.3468 15.0498L11.7455 26.1423L11.0127 30.1556C10.9139 30.6969 11.4068 31.1683 11.9732 31.073L16.1704 30.3693L27.7686 19.2779L23.3468 15.0498ZM30.6369 25.7117L29.3229 24.4551L26.9136 26.759C26.7925 26.8748 26.5964 26.8748 26.4757 26.759L26.0378 26.3403C25.9171 26.2245 25.9171 26.037 26.0378 25.9216L28.4471 23.6176L26.7229 21.9688L21.466 26.9951L25.3804 30.7379C25.8644 31.2008 26.6487 31.2008 27.1327 30.7379L30.6369 27.3873C31.1209 26.9245 31.1209 26.1745 30.6369 25.7117Z" fill="white"/>
<defs>
<linearGradient id="paint0_linear" x1="-2.03401e-06" y1="4.69387e-07" x2="42" y2="42" gradientUnits="userSpaceOnUse">
<stop stop-color="#5513C0"/>
<stop offset="1" stop-color="#311E7C"/>
</linearGradient>
</defs>
</svg>
